<?xml version="1.0" encoding="UTF-8"?><svg id="Layer_1" xmlns="http://www.w3.org/2000/svg" xmlns:xlink="http://www.w3.org/1999/xlink" viewBox="0 0 430.17 210.27"><defs><style>.cls-1{stroke:#274d79;}.cls-1,.cls-2{stroke-width:.78px;}.cls-1,.cls-2,.cls-3,.cls-4,.cls-5,.cls-6,.cls-7{fill:none;}.cls-1,.cls-2,.cls-4,.cls-5,.cls-6,.cls-7{stroke-miterlimit:10;}.cls-2,.cls-5,.cls-6,.cls-7{stroke:#fff;}.cls-8{clip-path:url(#clippath);}.cls-4{stroke:#001c45;stroke-width:1.71px;}.cls-4,.cls-5,.cls-6,.cls-7{stroke-linecap:round;}.cls-9{fill:#03aa99;}.cls-10{fill:#001c45;}.cls-11{fill:#fff;}.cls-12{fill:#ffcb27;}.cls-13{fill:#ff9a8d;}.cls-14{fill:#ba5964;}.cls-15{fill:#666;}.cls-16{fill:#ce385b;}.cls-17{fill:#e03e24;}.cls-18{fill:#c6c6c6;}.cls-19{fill:#e09b36;}.cls-20{fill:#1d7c3c;}.cls-21{fill:#1e4174;}.cls-22{fill:#85b8ed;}.cls-23{fill:#5c7036;}.cls-24{fill:#322b8e;}.cls-25{fill:#83aa3f;}.cls-26{fill:#496d09;}.cls-27{fill:#4e7eac;}.cls-5{stroke-width:2.1px;}.cls-6{stroke-width:1.57px;}.cls-7{stroke-width:.92px;}.cls-28{filter:url(#outer-glow-1);}</style><filter id="outer-glow-1" filterUnits="userSpaceOnUse"><feOffset dx="0" dy="0"/><feGaussianBlur result="blur" stdDeviation="0"/><feFlood flood-color="#9494e0" flood-opacity="0"/><feComposite in2="blur" operator="in"/><feComposite in="SourceGraphic"/></filter><clipPath id="clippath"><path class="cls-3" d="M287.04,158.04s-39.65-13.68-54.35-19.06c-14.7-5.39-36.24-16.16-44.75-7.11-8.51,9.05-1.4,22.52,19.07,29.85,20.47,7.33,78.27,9.58,78.27,9.58,1.77-4.3,2.34-8.72,1.76-13.26Z"/></clipPath></defs><g class="cls-28"><g><path class="cls-2" d="M310.58,13.66s13.71-16.54,39.98-6c26.28,10.54,52,53.8,28.09,106.15"/><path class="cls-9" d="M313.25,25.19c-1.2,3.09-13.15-1.56-11.95-4.65l1.67-4.3c1.28-3.3,5-4.93,8.3-3.65h0c3.3,1.28,4.93,5,3.65,8.3l-1.67,4.3Z"/><path class="cls-11" d="M301.3,20.54c-1.36,3.02,10.74,7.74,11.95,4.65,.91-2.39-10.97-6.83-11.95-4.65Z"/><path class="cls-17" d="M306.02,22.86c-.13,.39-.7,.54-1.28,.35-.58-.19-.94-.66-.81-1.05,.13-.39,.7-.54,1.28-.35,.58,.19,.94,.66,.81,1.05Z"/><path class="cls-17" d="M310.26,24.42c-.13,.39-.7,.54-1.28,.35-.58-.19-.94-.66-.81-1.05,.13-.39,.7-.54,1.28-.35,.58,.19,.94,.66,.81,1.05Z"/><g><path class="cls-23" d="M376.75,175.35s-5.17-1.42-8.53-6.15c-3.37-4.73-1.57-16.01,4.27-19.24,5.84-3.23,10.33-7.05,9.43-15.81-.9-8.76,2.02-15.72,9.43-16.62,7.41-.9,10.33-1.01,17.74-7.69,7.41-6.68,13.48-7.74,16.4-3.96,2.92,3.79,.67,8.9-.9,13.42s4.04,9.13,5.17,13.67c1.12,4.55,.22,10.41-5.62,13.65-5.84,3.24-9.88,5.84-9.21,11.73,.67,5.89-2.7,14.83-15.27,16.99h-22.91Z"/><path class="cls-6" d="M416.05,115.35s-27.36,21.47-32.21,60.01"/></g><g><path class="cls-20" d="M351.14,99.33c-4.31,2.71-4.04,7.41-3.82,13.37s-1.48,8.13-4.9,12.1c-3.41,3.97-1.57,10.03,4.36,12.73,5.93,2.7,11.1,6.86,7.95,13.87-3.14,7.01-2.02,19.78,13.48,23.95l19.93,.05s13.99-8.15,15.78-23.01c1.8-14.86-10.11-16.18-13.48-21.13-3.37-4.96-2.37-11.72-2.31-18.56,.06-6.84-5.1-10.3-12.07-9.92-6.96,.38-9.68,0-13.27-2.47-3.59-2.46-8.06-3.24-11.66-.98Z"/><path class="cls-6" d="M358.07,108.16c.04,.2,24.24,16.64,23.05,67.12"/></g><path class="cls-24" d="M414.02,178.27H1.57c-.87,0-1.57-.71-1.57-1.57H0c0-.87,.71-1.58,1.57-1.58H414.02c.87,0,1.57,.71,1.57,1.58h0c0,.87-.71,1.57-1.57,1.57Z"/><g><g><path class="cls-21" d="M207,161.72c3.37,2.71,12.99,13.6,49.73,13.6,10.25,0,21.32,.43,30.31-2.01,23.24-6.31,38.46-14.76,38.46-14.76l-44.95-15.3-40.3,.23-33.24,18.24Z"/><g><polygon class="cls-13" points="237.93 155.3 220.35 158.65 220.99 168.22 240.69 167.74 237.93 155.3"/><path class="cls-21" d="M237.93,155.3s42.61-12.05,55.86-15.42c15.17-3.86,38.19-14.32,45.94-4.62,7.76,9.7-1.71,22.62-22.69,28.29-20.99,5.66-78.42,5.11-78.42,5.11l-.69-13.35Z"/><g><path class="cls-15" d="M203.81,152.8s-.69,2.2-.58,6.86c.11,4.66,2.47,8.2,2.71,15,0,0,2.64-4.34,2.51-11.39-.13-7.05-4.64-10.47-4.64-10.47Z"/><path class="cls-16" d="M229.3,168.44c-2.75,.29-7.36,2.44-10.18,3.94-2.82,1.49-4.33,3.06-9.37,3.02,0,0-.02-13.32-.56-17.44-.54-4.12-1.37-4.83-1.37-4.83,0,0,4.67,.3,6.99,1.54,2.32,1.24,2.58,1.81,6.67,1.97,4.09,.16,5.77,.38,7.56,.35,2.72,4.25,1.63,9.4,.26,11.44Z"/><path class="cls-7" d="M217.39,170.01s1.56-6.91-.73-11.64"/><path class="cls-7" d="M220.28,169.21s1.52-5.26-.71-10.29"/><path class="cls-7" d="M223.53,167.9s1.37-3.51-.45-8.7"/><path class="cls-18" d="M209.76,175.4c-1.59-.03-3.54-.07-3.81-.74-.27-.67,1.59-4.64,.85-12.52-.4-4.23-3.37-9.2-2.98-9.34s2.71-1.01,4.01,.34c1.3,1.35,7.88,9.99,1.93,22.26Z"/></g></g><path class="cls-13" d="M315.36,67.26c5.54-3.92,17.49-13.04,23.77-32.63,1.99-6.22,2.17-10.48,2.12-13.33-3.24-2.73-2.9-7.89-5.86-11.09-4.16-4.5-7.88-10.22,.25-10.22,4.53,0,8.7,.18,10.93,2.34,1.77,1.71,5.11,6.77,5.72,8.53,1.39,3.98-.22,9-.4,15.06-.17,6.06-4.16,43.99-33.42,59.92l-3.12-18.59Z"/><path class="cls-13" d="M251.93,52.98s-.13,4.85-.55,6.86c-.42,2,0,3.06-6.12,4.11,0,0,2.49,8.02,13.09,9.39,10.6,1.37,14.93-6.96,14.61-6.96s-3.27-1.21-4.22-1.83c-.95-.61-.25-12.31-.25-12.31l-16.56,.74Z"/><path class="cls-14" d="M268.35,55.2s-1.3,4.11-7.73,4.53c-6.44,.42-8.83-3.64-8.83-3.64l.15-3.12,16.56-.74-.14,2.96Z"/><g><g><g><path class="cls-13" d="M241.81,35.36s-3.33-.52-4.79,1.93c-1.46,2.45,.37,7.02,3.83,7.78,3.32,.73,4.41-1.13,4.41-1.13l-3.45-8.58Z"/><path class="cls-14" d="M238.9,37.8c.76-.4,1.97-.51,2.72-.06,.28,.17-.1,.64-.35,.58-1.43-.32-3.1-.17-3.56,1.51-.02,.09-.1,0-.09-.05,.06-.9,.46-1.56,1.28-1.98Z"/><path class="cls-14" d="M239.55,37.84c.14-.09,.54,.24,.52,.35-.21,.13-.53,.43-.65,.75-.22,.55-.24,1-.12,1.58,.29,1.34,1.18,2.21,2.55,2.34,.02,0,.07,.07,.04,.08-1.11,.44-2.58-.57-2.98-1.57-.45-1.1-.59-2.73,.65-3.53Z"/></g><g><path class="cls-13" d="M273.99,29.18s2.9-1.72,5.16,.01c2.26,1.73,2.26,6.66-.67,8.65-2.81,1.91-4.51,.58-4.51,.58l.02-9.24Z"/><path class="cls-14" d="M277.6,30.37c-.85-.08-2.02,.25-2.55,.95-.2,.26,.33,.56,.54,.41,1.21-.83,2.82-1.31,3.86,.09,.06,.07,.09-.03,.07-.08-.39-.82-1.01-1.28-1.92-1.37Z"/><path class="cls-14" d="M277.01,30.65c-.17-.03-.41,.42-.35,.51,.24,.05,.65,.21,.89,.46,.41,.43,.6,.84,.69,1.43,.22,1.35-.28,2.49-1.5,3.12-.02,.01-.04,.09,0,.09,1.2,0,2.18-1.49,2.19-2.56,0-1.19-.47-2.76-1.91-3.04Z"/></g><path class="cls-13" d="M262.07,13.06c-2.58-.89-5.34-1.17-7.99-.66-2.65,.51-5.26,1.69-7.33,3.47-4.83,4.15-6.7,10.72-5.52,16.88v.03c.34,1.76,.78,3.5,1.32,5.21l.76,2.39c.59,1.87,1.93,5.45,4.06,8.72,4.23,6.49,11.11,7.55,15.06,6.79,3.96-.76,9.95-4.3,11.47-11.89,.77-3.83,.69-7.64,.54-9.6l-.18-2.5c-.13-1.79-.37-3.57-.71-5.33v-.03c-1.19-6.15-5.47-11.41-11.49-13.48Z"/><g><path class="cls-10" d="M264.45,31.48c-.18-.93,.43-1.84,1.37-2.02,.93-.18,1.84,.43,2.02,1.37,.18,.93-.43,1.84-1.37,2.02-.93,.18-1.84-.43-2.02-1.37Z"/><path class="cls-10" d="M264.86,25.23l8.11,1.54s-.58-2.23-3.46-3.4c-1.26-.51-2.68-.46-3.54,.01-1.25,.69-1.11,1.84-1.11,1.84Z"/><path class="cls-10" d="M250.93,27.71l-5.93,5.74s-.74-2.18,1.03-4.74c.77-1.12,1.98-1.86,2.97-1.93,1.42-.11,1.94,.93,1.94,.93Z"/><path class="cls-10" d="M253.62,33.8c-.18-.93-1.08-1.55-2.02-1.37s-1.55,1.08-1.37,2.02c.18,.93,1.08,1.55,2.02,1.37,.93-.18,1.55-1.08,1.37-2.02Z"/></g></g><path class="cls-14" d="M259.61,32.11c-.78,.21-1.35,8.21-.27,9.35,.45,.47,1.57,.81,2.19,.63,.64-.06,1.55-.79,1.8-1.4,.59-1.46-2.91-8.68-3.71-8.59Z"/><g><path class="cls-4" d="M232.69,17.71s6.16-1.2,8.5,1.96"/><path class="cls-4" d="M232.51,11.65s7.64,1.29,8.79,8.59"/></g><path class="cls-10" d="M243.76,19.68s4.31,6.48,11.39,8.4c7.08,1.92,11.08-6.28,10.36-10.01,0,0,6.92,11.14,8.48,11.11,0,0,1.69-4.49,1.14-9.51-.55-5.02-2.93-7.52-5.49-9.37-2.44-1.76-4.82-.7-5.8-.06-1.29-2.43-5.08-7.56-12.55-6.72-8.36,.94-11.6,6.71-10.39,15.51,0,0-3.14-.89-5.01,2.76-1.88,3.64,.21,10.71,2.71,14.07,0,0,2.18-.69,3.22-.49,0,0-1.47-5.82-.09-10.93,1.12-4.16,2.04-4.75,2.04-4.75Z"/></g><path class="cls-25" d="M247.89,63.4c.75,3.02,5.02,7.81,11.23,8.1,6.21,.29,11.34-3.88,12.18-5.72,5.18,.48,11.77,1.89,13.98,2.29,3.13,.57,6.17,3.36,5.05,12.18-1.09,8.56-7.88,62.66-7.88,62.66,0,0-17.95,6.97-42.21,.58,0,0-14.68-58.72-15.99-63.8-1.31-5.08-2.9-10.45,1.74-12.05s21.89-4.24,21.89-4.24Z"/><path class="cls-26" d="M267.92,125.87c.34,.07,.69,.12,1.03,.15,3.42,.36,1.86-3.51,.79-5.03-1.64-2.33-13.02-11.14-13.02-11.14l-8.84,.75-9.96,4.1-4.09,3.18c.83,3.31,1.63,6.51,2.37,9.48,3.72-2.33,12.73-7.86,14.72-8.05,1.25-.12,2.38,.32,3.5,.8,1.62,.7,3.25,1.33,4.91,1.94,.75,.27,1.51,.55,2.23,.9,1.3,.63,2.48,1.49,3.8,2.1,.82,.38,1.68,.65,2.56,.82Z"/><line class="cls-5" x1="306.13" y1="107.35" x2="312.57" y2="110.43"/><line class="cls-5" x1="303.41" y1="112.7" x2="309.85" y2="115.77"/><path class="cls-2" d="M213.45,135.26c8.47,1.24,23.49,1.54,36.75-10.47,10.68-9.67,20.43-28.12,45.24-20.01"/><path class="cls-26" d="M307.13,103.87c2.93,1.55-3.07,12.88-6,11.33l-4.08-2.16c-3.13-1.66-4.32-5.53-2.67-8.66h0c1.66-3.13,5.53-4.32,8.66-2.67l4.08,2.16Z"/><path class="cls-13" d="M219.44,76.52s-20.07,36.28-23.72,42.4c-3.65,6.12-2.9,12.99-2.15,14.71s11.16,2.9,20.72-.75c9.55-3.65,34.15-16.15,35.98-17.11,0,0,2.34,1.54,4.69,2.65,3.28,1.56,5.94,1.62,8.07,3.23,2.13,1.61,4.46,4.68,8.57,2.69,2.45-1.18-2.98-8.79-5.41-13-2.38-2.03-10.86-5.55-15.11-4.94-6.01,.86-36.23,11.14-36.23,11.14l10.95-18.89-6.34-22.13Z"/><path class="cls-25" d="M227.04,67.31c-4.93,1.55-6.83,3.96-11.65,12.73-4.82,8.77-11.2,19.44-11.2,19.44,0,0,5.18,8.08,16.6,10.38l7.75-13.1-1.51-29.44Z"/><path class="cls-25" d="M285.28,68.07c5.9,.96,20.9,5.36,30.08-.81,0,0,6.06,9.24,5.02,20.84,0,0-12.44,11.09-31.88,6.64l-3.22-26.68Z"/><g><polygon class="cls-13" points="287.04 158.04 304.29 162.79 302.89 172.28 283.29 170.22 287.04 158.04"/><path class="cls-22" d="M287.04,158.04s-39.65-13.68-54.35-19.06c-14.7-5.39-36.24-16.16-44.75-7.11-8.51,9.05-1.4,22.52,19.07,29.85,20.47,7.33,78.27,9.58,78.27,9.58,1.77-4.3,2.34-8.72,1.76-13.26Z"/><g><path class="cls-15" d="M321.24,158.27s.51,2.25,.03,6.89c-.48,4.64-3.12,7.97-3.9,14.73,0,0-2.28-4.54-1.59-11.55s5.47-10.06,5.47-10.06Z"/><path class="cls-16" d="M294.58,171.82c2.72,.51,7.14,3.02,9.83,4.74,2.69,1.72,4.07,3.4,9.1,3.76,0,0,1.09-13.27,1.95-17.34,.87-4.06,1.75-4.7,1.75-4.7,0,0-4.67-.08-7.09,.98-2.41,1.05-2.72,1.6-6.81,1.43s-5.78-.08-7.56-.26c-3.05,4.02-2.38,9.24-1.18,11.38Z"/><path class="cls-7" d="M306.34,174.35s-1.01-7.02,1.66-11.55"/><path class="cls-7" d="M303.52,173.31s-1.09-5.36,1.53-10.2"/><path class="cls-7" d="M300.39,171.75s-1.09-3.61,1.15-8.64"/><path class="cls-18" d="M313.51,180.33c1.59,.1,3.54,.21,3.86-.43,.32-.64-1.22-4.75,.15-12.55,.74-4.19,4.09-8.9,3.72-9.07-.37-.17-2.62-1.23-4.03,.02-1.4,1.24-8.65,9.33-3.71,22.04Z"/></g></g><path class="cls-27" d="M286.99,165.16h-.89s-25.84-1.68-53.52-6.24c-27.19-4.48-45.57-13.63-48.03-20.35-1.21,8.13,6.62,17.49,22.46,23.15,20.47,7.33,78.27,9.58,78.27,9.58,.74-1.78,1.34-3.79,1.71-6.14Z"/><g class="cls-8"><path class="cls-1" d="M281.9,155.72c-.03,3.58-.77,11.62-2.34,16.56"/></g></g><path class="cls-26" d="M228.55,96.75s3.08-8.17,.98-20.23c0,0,3.86,14.71-.33,22.81l-.65-2.58Z"/><path class="cls-26" d="M288.5,94.75s1.13-9.29-.89-17.96c0,0,2.45,4.98,2.32,18.26l-1.43-.3Z"/></g><g><path class="cls-19" d="M165.23,142.41c3.59-.72,9.88-1.36,14.34,2.55,2.85,2.5,1.5,2.93-1.05,2.88-4.29-.08-7.71,3.53-7.71,3.53,0,0-5.58,.64-6.95-3.8-1.99-6.43,1.37-5.16,1.37-5.16Z"/><path class="cls-12" d="M151.58,175.1h27.57c6.29,.14,10.59-.34,13.68-3.08,3.59-3.18,4.21-8.84,3.64-13.17-.67-1.74-4.48-.45-9.18-1.25-4.26-.72-6.73-2.64-9.16-5.89-2.42-3.23-3.72-4.52-8.51-6.86-2.63-1.28-4.76-1.15-4.76-1.15,0,0,1.69-3.7,4.26-6.07,3.1-2.86-2.43-4-8.72-1.17-3.74,1.68-7.66,4.97-10.41,8.1-1.79,2.03-6.45,1.73-11.51-2.16-5.06-3.89-22.8-20.01-42.23-17.3-19.43,2.71-32.92,18.62-34.9,30.06-1.98,11.44,1.83,17.93,5.13,19.96l85.12-.02Z"/><path class="cls-12" d="M62.99,155.26c-5.41-2.93-19.23-3.12-29.65,5.18-10.16,8.09-14.39,24.97-6.02,37.71,8.37,12.74,24.92,13.14,27.06,11.34,2.14-1.8-8.83-8.31-11.8-16.61,0,0,5.93,3.77,9.31,4.13,3.38,.36-5.16-8.37-6.05-17.63s3.68-19.41,14.92-18.96l2.23-5.16Z"/><path class="cls-10" d="M196.16,165.04c-.61,.12-.38-3.22-1.12-2.9-.73,.32,.45,2.03,.45,2.03-2.09-.51-5.03-3.51-3.85-5.36,1.21-1.91,4.59-1.04,5.39-.71,1.21,.51,2.04,4.53-.87,6.94Z"/><path class="cls-19" d="M92.9,139.7s7.45,.61,10.31,8.67-.32,12.9-2.67,15.5c0,0,10.57-1.01,15.27,2.1,4.7,3.11,4.28,9.15,4.28,9.15h2.56s.11-7.38-4.84-10.49c-4.95-3.11-9.13-3.49-11.9-3.3,0,0,2.91-6.28-.42-13.66-3.33-7.38-9.65-8.39-12.59-7.97Z"/><path class="cls-19" d="M131.8,163.43s11.01-1.22,15.67,2.29c4.66,3.52,4.11,9.38,4.11,9.38l2.61,.02s.69-6.27-4.05-10.09c-4.74-3.82-15.21-2.68-18.34-1.61Z"/><path class="cls-10" d="M163.45,158.35s-.46-2.74,2.79-3.46c3.5-.78,4.44,1.84,4.44,1.84,0,0-1.77-.68-4.1-.11-1.71,.42-3.12,1.73-3.12,1.73Z"/></g><path class="cls-11" d="M215.36,.38l5.99,6.21-2.01,2.26-6.64-5.47,2.66-3Zm7.96,7.78c.18,.16,.32,.34,.41,.55,.09,.21,.15,.42,.16,.64,.01,.22-.02,.44-.09,.65-.07,.21-.18,.41-.34,.58-.16,.18-.34,.32-.55,.41-.2,.1-.42,.15-.64,.16-.22,.01-.44-.02-.65-.09-.21-.07-.41-.18-.59-.34-.18-.16-.31-.34-.41-.55-.1-.21-.16-.42-.17-.64-.01-.22,.01-.44,.08-.65,.07-.22,.18-.41,.34-.59,.16-.18,.34-.31,.54-.4,.21-.09,.42-.15,.64-.16,.22-.01,.44,.02,.66,.09,.22,.07,.42,.19,.59,.34Z"/></g></g></svg>