<svg xmlns="http://www.w3.org/2000/svg" width="459.742" height="110.288" viewBox="0 0 459.742 110.288">
  <g id="Group_1" data-name="Group 1" transform="translate(-245 -586.057)">
    <g id="Group_1-2" data-name="Group 1" transform="translate(-579.544 55.099)">
      <rect id="Rectangle_4" data-name="Rectangle 4" width="31.194" height="31.194" transform="translate(868.659 553.016) rotate(45)" fill="#fa70a0"/>
      <path id="Rectangle_11" data-name="Rectangle 11" d="M0,0H31.194V31.194H4a4,4,0,0,1-4-4Z" transform="translate(846.602 575.073) rotate(45)" fill="#f23c7b"/>
      <rect id="Rectangle_7" data-name="Rectangle 7" width="31.194" height="31.194" transform="translate(912.774 553.016) rotate(45)" fill="#fa70a0"/>
      <rect id="Rectangle_9" data-name="Rectangle 9" width="31.194" height="31.194" transform="translate(890.716 575.073) rotate(45)" fill="#f23c7b"/>
      <path id="Rectangle_13" data-name="Rectangle 13" d="M0,0H31.194V27.194a4,4,0,0,1-4,4H0Z" transform="translate(912.774 597.131) rotate(45)" fill="#e21b60"/>
      <path id="Rectangle_14" data-name="Rectangle 14" d="M0,0H31.194V27.194a4,4,0,0,1-4,4H0Z" transform="translate(868.659 597.131) rotate(45)" fill="#e21b60"/>
      <path id="Rectangle_15" data-name="Rectangle 15" d="M0,0H31.194V27.194a4,4,0,0,1-4,4H0Z" transform="translate(956.889 597.131) rotate(45)" fill="#e21b60"/>
      <rect id="Rectangle_10" data-name="Rectangle 10" width="31.194" height="31.194" transform="translate(934.831 575.073) rotate(45)" fill="#f23c7b"/>
      <path id="Rectangle_12" data-name="Rectangle 12" d="M0,0H27.194a4,4,0,0,1,4,4V31.194H0Z" transform="translate(978.946 575.073) rotate(45)" fill="#f23c7b"/>
      <rect id="Rectangle_8" data-name="Rectangle 8" width="31.194" height="31.194" transform="translate(956.889 553.016) rotate(45)" fill="#fa70a0"/>
      <path id="Rectangle_5" data-name="Rectangle 5" d="M3,0H31.194V31.194H0V3A3,3,0,0,1,3,0Z" transform="translate(890.716 530.958) rotate(45)" fill="#ffa7c5"/>
      <path id="Rectangle_6" data-name="Rectangle 6" d="M3,0H31.194V31.194H0V3A3,3,0,0,1,3,0Z" transform="translate(934.831 530.958) rotate(45)" fill="#ffa7c5"/>
    </g>
    <path id="Path_183" data-name="Path 183" d="M28.867-32.07H51.523V-2.461A63.874,63.874,0,0,1,41.152.059a67.553,67.553,0,0,1-9.941.723q-12.93,0-19.746-7.6T4.648-28.633q0-13.828,7.91-21.562T34.492-57.93a42.438,42.438,0,0,1,16.953,3.516l-4.023,9.688a28.736,28.736,0,0,0-13.008-3.125q-7.852,0-12.578,5.273T17.109-28.4q0,9.3,3.809,14.2T31.992-9.3a39.172,39.172,0,0,0,7.7-.781V-21.992H28.867ZM91.914,0l-2.3-5.937H89.3A17.6,17.6,0,0,1,83.105-.684,20.009,20.009,0,0,1,74.8.781q-6.289,0-9.9-3.594T61.289-13.047q0-6.953,4.863-10.254T80.82-26.953l7.578-.234V-29.1q0-6.641-6.8-6.641-5.234,0-12.3,3.164l-3.945-8.047A35.5,35.5,0,0,1,82.07-44.57q8.789,0,13.477,3.828T100.234-29.1V0ZM88.4-20.234l-4.609.156q-5.2.156-7.734,1.875a5.889,5.889,0,0,0-2.539,5.234q0,5.039,5.781,5.039a9.156,9.156,0,0,0,6.621-2.383,8.37,8.37,0,0,0,2.48-6.328ZM124.414,0H112.5V-60.781h11.914Zm40.234,0-2.3-5.937h-.312A17.6,17.6,0,0,1,155.84-.684a20.009,20.009,0,0,1-8.3,1.465q-6.289,0-9.9-3.594t-3.613-10.234q0-6.953,4.863-10.254t14.668-3.652l7.578-.234V-29.1q0-6.641-6.8-6.641-5.234,0-12.3,3.164l-3.945-8.047A35.5,35.5,0,0,1,154.8-44.57q8.789,0,13.477,3.828T172.969-29.1V0Zm-3.516-20.234-4.609.156q-5.2.156-7.734,1.875a5.889,5.889,0,0,0-2.539,5.234q0,5.039,5.781,5.039a9.156,9.156,0,0,0,6.621-2.383,8.37,8.37,0,0,0,2.48-6.328ZM194.18-22.3,180.117-43.672h13.516l8.477,13.906,8.555-13.906H224.18L209.961-22.3,224.844,0H211.289l-9.18-14.961L192.891,0H179.375Zm31.055-21.367h13.047l8.242,24.57a34.092,34.092,0,0,1,1.445,7.578h.234a33.488,33.488,0,0,1,1.68-7.578l8.086-24.57h12.773L252.266,5.586A21.327,21.327,0,0,1,245.02,15.82a18.289,18.289,0,0,1-11,3.4,27.652,27.652,0,0,1-6.055-.664V9.1a20.366,20.366,0,0,0,4.688.508,8.466,8.466,0,0,0,5.527-1.934,12.535,12.535,0,0,0,3.691-5.84l.7-2.148Z" transform="translate(434 672)" fill="#fff"/>
  </g>
</svg>
