<svg xmlns="http://www.w3.org/2000/svg" xmlns:xlink="http://www.w3.org/1999/xlink" width="360.95" height="210.584" viewBox="0 0 360.95 210.584">
  <defs>
    <clipPath id="clip-path">
      <path id="Path_28" data-name="Path 28" d="M297.7,98.5a8.278,8.278,0,1,0,11.7-.4A8.244,8.244,0,0,0,297.7,98.5Z"/>
    </clipPath>
    <clipPath id="clip-path-2">
      <path id="Path_42" data-name="Path 42" d="M81.3,13.2a8.251,8.251,0,1,0,8.4-8.1A8.26,8.26,0,0,0,81.3,13.2Z"/>
    </clipPath>
    <clipPath id="clip-path-3">
      <path id="Path_60" data-name="Path 60" d="M246.6,207.9l9.9-25.5a1.463,1.463,0,0,1,2.7,0l9.9,25.5Z"/>
    </clipPath>
    <clipPath id="clip-path-4">
      <path id="Path_67" data-name="Path 67" d="M49.3,160.5h54.6a5.121,5.121,0,0,1,5.1,5.1V175a5.121,5.121,0,0,1-5.1,5.1H49.3a5.121,5.121,0,0,1-5.1-5.1v-9.4A5.121,5.121,0,0,1,49.3,160.5Z"/>
    </clipPath>
  </defs>
  <g id="DESIGNED_BY_FREEPIK" transform="translate(0.025 0.059)">
    <g id="Group_64" data-name="Group 64">
      <path id="Path_2" data-name="Path 2" d="M306.8,209.4s54.3-24.1,53-72.8-52.7-71.3-87.6-41.3c-34.9,30.1-57.5,4.8-75.6-20.6S138.2,17.3,85.3,32.1c-55.4,15.5-72.5,71.7-67,109.1,4,26.9,18.4,49.7,38,67.3.6.6,1.3,1.1,2,1.7l248.5-.8Z" fill="#24272b"/>
      <g id="Group_15" data-name="Group 15">
        <g id="Group_9" data-name="Group 9">
          <g id="Group_7" data-name="Group 7">
            <path id="Path_68" data-name="Path 68" d="M0,0H45.4V11.1H0Z" transform="translate(159.3 193.3)" fill="#0a50d8"/>
            <path id="Path_3" data-name="Path 3" d="M213.2,210.2H150.7a2.9,2.9,0,0,1-2.9-2.9h0a2.9,2.9,0,0,1,2.9-2.9h62.5a2.9,2.9,0,0,1,2.9,2.9h0A2.9,2.9,0,0,1,213.2,210.2Z" fill="#0743b9"/>
          </g>
          <g id="Group_8" data-name="Group 8">
            <path id="Path_4" data-name="Path 4" d="M284,65.6a6.487,6.487,0,0,0-6.5-6.5H86.5A6.487,6.487,0,0,0,80,65.6V176.2H284Z" fill="#0a50d8"/>
            <rect id="Rectangle_30" data-name="Rectangle 30" width="186.6" height="99.2" transform="translate(88.7 68.4)" fill="#eaedfb"/>
            <path id="Path_5" data-name="Path 5" d="M86.5,194.4h191a6.487,6.487,0,0,0,6.5-6.5V176.1H79.9v11.8a6.573,6.573,0,0,0,6.6,6.5Z" fill="#fff"/>
            <path id="Path_6" data-name="Path 6" d="M185.9,185.3a3.9,3.9,0,0,1-3.9,3.9,3.9,3.9,0,1,1,3.9-3.9Z" fill="#0a50d8"/>
          </g>
        </g>
        <g id="Group_10" data-name="Group 10" opacity="0.57">
          <path id="Path_7" data-name="Path 7" d="M140.5,68.4,97.9,167.6H113l43.1-99.2Z" fill="#fff"/>
          <path id="Path_8" data-name="Path 8" d="M249.2,68.4l-42.6,99.2h15l43.1-99.2Z" fill="#fff"/>
          <path id="Path_9" data-name="Path 9" d="M175.3,68.4l-42.6,99.2h44.6l43-99.2Z" fill="#fff"/>
        </g>
        <g id="Group_14" data-name="Group 14">
          <g id="Group_11" data-name="Group 11">
            <rect id="Rectangle_31" data-name="Rectangle 31" width="79.2" height="56.1" transform="translate(102 89.1)" fill="#fff"/>
            <rect id="Rectangle_32" data-name="Rectangle 32" width="79.2" height="56.1" transform="translate(102 89.1)" fill="none" stroke="#a2c9f8" stroke-linecap="round" stroke-linejoin="round" stroke-width="3.01"/>
          </g>
          <g id="Group_12" data-name="Group 12">
            <line id="Line_1" data-name="Line 1" x2="72.4" transform="translate(190.2 93.3)" fill="none" stroke="#fff" stroke-miterlimit="10" stroke-width="2.81"/>
            <line id="Line_2" data-name="Line 2" x2="44.5" transform="translate(190.2 110.3)" fill="none" stroke="#fff" stroke-miterlimit="10" stroke-width="2.81"/>
            <line id="Line_3" data-name="Line 3" x2="12.8" transform="translate(190.2 101.7)" fill="none" stroke="#fff" stroke-miterlimit="10" stroke-width="2.81"/>
          </g>
          <g id="Group_13" data-name="Group 13">
            <line id="Line_4" data-name="Line 4" x2="72.4" transform="translate(190.2 121.3)" fill="none" stroke="#fff" stroke-miterlimit="10" stroke-width="2.81"/>
            <line id="Line_5" data-name="Line 5" x2="72.4" transform="translate(190.2 138.2)" fill="none" stroke="#fff" stroke-miterlimit="10" stroke-width="2.81"/>
            <line id="Line_6" data-name="Line 6" x2="42.7" transform="translate(190.2 129.6)" fill="none" stroke="#fff" stroke-miterlimit="10" stroke-width="2.81"/>
          </g>
          <path id="Path_69" data-name="Path 69" d="M17.4,0A17.4,17.4,0,1,1,0,17.4,17.4,17.4,0,0,1,17.4,0Z" transform="translate(122.6 99.4)" fill="#f02525"/>
          <line id="Line_7" data-name="Line 7" x2="17.1" transform="translate(131.2 116.8)" fill="none" stroke="#fff" stroke-linecap="round" stroke-linejoin="round" stroke-width="4.21"/>
        </g>
      </g>
      <g id="Group_33" data-name="Group 33">
        <g id="Group_18" data-name="Group 18">
          <g id="Group_16" data-name="Group 16">
            <path id="Path_10" data-name="Path 10" d="M296.2,150.2l3.8,55.3h5.9l1.2-55.3Z" fill="#0b773d"/>
            <path id="Path_11" data-name="Path 11" d="M295,210.1h10.8v-5H300a4.951,4.951,0,0,0-5,5Z" fill="#96422e"/>
          </g>
          <g id="Group_17" data-name="Group 17">
            <path id="Path_12" data-name="Path 12" d="M307.9,210.1h11.3l-.5-5h-5.8a4.891,4.891,0,0,0-5,5Z" fill="#96422e"/>
            <path id="Path_13" data-name="Path 13" d="M314.9,150.3l3.8,54.7-5.8.2-9.7-54.9Z" fill="#108b49"/>
          </g>
        </g>
        <g id="Group_25" data-name="Group 25">
          <g id="Group_20" data-name="Group 20">
            <path id="Path_14" data-name="Path 14" d="M304.8,121.8l15.4,13.8a3.483,3.483,0,0,0,4.5.1h0a3.608,3.608,0,0,0,.5-5s-7.4-10-11.6-13.3l-8.8,4.4Z" fill="#f04365"/>
            <g id="Group_19" data-name="Group 19">
              <path id="Path_15" data-name="Path 15" d="M328.6,155.3a3.691,3.691,0,0,1-3.7,3.7,3.7,3.7,0,1,1,0-7.4A3.691,3.691,0,0,1,328.6,155.3Z" fill="#f89a6e"/>
              <path id="Path_16" data-name="Path 16" d="M320.1,134l2,18.4h5.3l-1.2-19a3.032,3.032,0,0,0-3.5-2.8h0a3.03,3.03,0,0,0-2.6,3.4Z" fill="#f04365"/>
            </g>
          </g>
          <g id="Group_21" data-name="Group 21">
            <path id="Path_17" data-name="Path 17" d="M303.2,114.8s-7.6.2-8,7.8.9,27.7.9,27.7h18.8l.5-24.6c1.2-6.6-2.1-10.7-8.9-11-1,0-2.1,0-3.3.1Z" fill="#f04365"/>
            <path id="Path_18" data-name="Path 18" d="M315.3,131.2l-3.3-2.9,3.2,8.9Z" fill="#d72e57"/>
          </g>
          <g id="Group_24" data-name="Group 24">
            <g id="Group_22" data-name="Group 22">
              <path id="Path_19" data-name="Path 19" d="M277.6,108.3a3.691,3.691,0,0,1-3.7,3.7,3.7,3.7,0,1,1,3.7-3.7Z" fill="#f89a6e"/>
              <path id="Path_20" data-name="Path 20" d="M285.6,128.4l-8-18.1-5.1,1.6,7.2,18.3a3.021,3.021,0,0,0,4,2h0a2.983,2.983,0,0,0,1.9-3.8Z" fill="#f04365"/>
            </g>
            <g id="Group_23" data-name="Group 23">
              <path id="Path_21" data-name="Path 21" d="M300.3,115.5A105.8,105.8,0,0,0,281.4,126a3.418,3.418,0,0,0-1.6,4.2h0a3.522,3.522,0,0,0,4.5,2.1l15.2-7.4.8-9.4Z" fill="#f04365"/>
              <path id="Path_22" data-name="Path 22" d="M295.1,127l.1-4.4-3.4,6Z" fill="#d72e57"/>
            </g>
          </g>
        </g>
        <g id="Group_32" data-name="Group 32">
          <g id="Group_30" data-name="Group 30">
            <path id="Path_23" data-name="Path 23" d="M301,110.5l.2,5.1a2.821,2.821,0,0,0,1.8,2.5h0a2.775,2.775,0,0,0,3.8-2.9l-.3-5.1-5.5.4Z" fill="#f89a6e"/>
            <path id="Path_24" data-name="Path 24" d="M301.2,114.1s4.7.7,5.4-4c.7-4.6-4.5-2.7-4.5-2.7l-1,3.8.1,2.9Z" fill="#e88057"/>
            <g id="Group_29" data-name="Group 29">
              <path id="Path_25" data-name="Path 25" d="M297.7,98.5a8.278,8.278,0,1,0,11.7-.4A8.244,8.244,0,0,0,297.7,98.5Z" fill="#f89a6e"/>
              <g id="Group_28" data-name="Group 28">
                <g id="Group_27" data-name="Group 27" clip-path="url(#clip-path)">
                  <g id="Group_26" data-name="Group 26">
                    <path id="Path_26" data-name="Path 26" d="M306.2,106.6s-3.3,5.9,1.3,7.6c4.6,1.6,5.9-11.2,5.9-11.2l-5-9.8-12.1-.8-.7,4.2s1.2,4.1,11.3,7.9l-.7,2.1Z" fill="#243051"/>
                    <path id="Path_27" data-name="Path 27" d="M303.7,102l1.4,4.8,3.7-2.1Z" fill="#243051"/>
                  </g>
                </g>
              </g>
            </g>
            <path id="Path_29" data-name="Path 29" d="M305.4,105a2.193,2.193,0,1,0,3.1-.1A2.2,2.2,0,0,0,305.4,105Z" fill="#f89a6e"/>
          </g>
          <g id="Group_31" data-name="Group 31">
            <path id="Path_30" data-name="Path 30" d="M295.3,101.4s-.4-5.9,4.6-9a8.464,8.464,0,0,1,11.9,3.1c1.1,2,1.7,4,1,7.8l-17.5-1.9Z" fill="#fdd63b"/>
            <path id="Path_31" data-name="Path 31" d="M312.5,104.2h-.1l-19.9-2.1a.948.948,0,0,1-.8-.9.988.988,0,0,1,1-.8l19.9,2.1a.851.851,0,0,1-.1,1.7Z" fill="#f2a62f"/>
          </g>
        </g>
      </g>
      <g id="Group_36" data-name="Group 36">
        <g id="Group_34" data-name="Group 34">
          <path id="Path_72" data-name="Path 72" d="M15.5,0A15.5,15.5,0,1,1,0,15.5,15.5,15.5,0,0,1,15.5,0Z" transform="translate(273.57 39.318) rotate(-76.761)" fill="#ce385b"/>
          <path id="Path_32" data-name="Path 32" d="M294.4,34.5a2.25,2.25,0,0,1-4.5,0A2.25,2.25,0,0,1,294.4,34.5Zm-.2-15.3-.1,11.2h-3.8c0-4.2-.1-6.9-.1-11.2Z" fill="#fff"/>
        </g>
        <g id="Group_35" data-name="Group 35">
          <path id="Path_33" data-name="Path 33" d="M193.3.2l1.3,3.3A7.924,7.924,0,0,0,199,7.9l3.3,1.3L199,10.5a7.923,7.923,0,0,0-4.4,4.4l-1.3,3.3L192,14.9a7.924,7.924,0,0,0-4.4-4.4l-3.3-1.3,3.3-1.3A7.923,7.923,0,0,0,192,3.5Z" fill="#c25def"/>
          <path id="Path_34" data-name="Path 34" d="M228.8,28.7l.9,2.2a5.216,5.216,0,0,0,3,3l2.2.8-2.2.8a5.216,5.216,0,0,0-3,3l-.9,2.2-.9-2.2a5.216,5.216,0,0,0-3-3l-2.2-.8,2.2-.8a5.216,5.216,0,0,0,3-3Z" fill="#ffea00"/>
          <path id="Path_35" data-name="Path 35" d="M13.6,47.7l.7,1.8a4.065,4.065,0,0,0,2.4,2.4l1.8.7-1.8.7a4.065,4.065,0,0,0-2.4,2.4l-.7,1.8L13,55.6a4.065,4.065,0,0,0-2.4-2.4l-1.8-.7,1.8-.7A4.065,4.065,0,0,0,13,49.4Z" fill="#f5dba0"/>
          <path id="Path_36" data-name="Path 36" d="M341.9,56.8l.7,1.8A4.065,4.065,0,0,0,345,61l1.8.7-1.8.7a4.065,4.065,0,0,0-2.4,2.4l-.7,1.8-.7-1.8a4.065,4.065,0,0,0-2.4-2.4l-1.8-.7,1.8-.7a4.065,4.065,0,0,0,2.4-2.4Z" fill="#8adb93"/>
        </g>
      </g>
      <g id="Group_51" data-name="Group 51">
        <g id="Group_43" data-name="Group 43">
          <g id="Group_37" data-name="Group 37">
            <path id="Path_37" data-name="Path 37" d="M91.8,20l3.6,3.6a2.99,2.99,0,0,0,3,.7h0a2.769,2.769,0,0,0,.9-4.7L95.7,16l-3.9,4Z" fill="#f89a6e"/>
            <path id="Path_38" data-name="Path 38" d="M94.4,22.6S96.6,18,95.7,16c-1.9-4.3-5.2,1-5.2,1l1.8,3.5,2.1,2.1Z" fill="#e88057"/>
          </g>
          <g id="Group_41" data-name="Group 41">
            <path id="Path_39" data-name="Path 39" d="M81.3,13.2a8.251,8.251,0,1,0,8.4-8.1A8.26,8.26,0,0,0,81.3,13.2Z" fill="#f89a6e"/>
            <g id="Group_40" data-name="Group 40">
              <g id="Group_39" data-name="Group 39" clip-path="url(#clip-path-2)">
                <g id="Group_38" data-name="Group 38">
                  <path id="Path_40" data-name="Path 40" d="M93.1,13.6s1.5,6.6,6,4.7S96.1,6,96.1,6L85.9,2.2,76.3,9.7l1.1,6.5S80.8,13.8,91,9.8C90.9,9.7,93.1,13.6,93.1,13.6Z" fill="#243051"/>
                  <path id="Path_41" data-name="Path 41" d="M88.1,11.8l4.3,2.7,1.3-4.1Z" fill="#243051"/>
                </g>
              </g>
            </g>
          </g>
          <path id="Path_43" data-name="Path 43" d="M93.6,15.2s7.1,19.5,16,10.6c7.9-7.9-4-12.7-7.3-13.5-2.5-.6-3.4-1.5-6.5-4.4l-6.2.9Z" fill="#243051"/>
          <path id="Path_44" data-name="Path 44" d="M91.4,12.9a2.2,2.2,0,1,0,2.2-2.2A2.22,2.22,0,0,0,91.4,12.9Z" fill="#f89a6e"/>
          <g id="Group_42" data-name="Group 42">
            <path id="Path_45" data-name="Path 45" d="M80.5,14.5s-3.3-5-.4-10.1A8.515,8.515,0,0,1,92,1.2c1.9,1.2,3.4,2.6,4.7,6.3l-16.2,7Z" fill="#fdd63b"/>
            <path id="Path_46" data-name="Path 46" d="M96.9,8.5h0L78.5,16.4a.809.809,0,0,1-1.1-.5.782.782,0,0,1,.5-1.1L96.2,7a.809.809,0,0,1,1.1.5.758.758,0,0,1-.4,1Z" fill="#f2a62f"/>
          </g>
        </g>
        <g id="Group_46" data-name="Group 46">
          <g id="Group_44" data-name="Group 44">
            <path id="Path_47" data-name="Path 47" d="M80.2,60.8,61.9,79.6l-4.7-2.1L73.1,55a4.163,4.163,0,0,1,7-.3h0a6.574,6.574,0,0,1,.1,6.1Z" fill="#0b773d"/>
            <path id="Path_48" data-name="Path 48" d="M50.2,77.4l9.2,6.5,2.5-4.4-4.8-3.3a4.884,4.884,0,0,0-6.9,1.2Z" fill="#96422e"/>
          </g>
          <g id="Group_45" data-name="Group 45">
            <path id="Path_49" data-name="Path 49" d="M92.8,49.6,74.3,52.9l3.8,7.2H103s7.5-.2,4-8.4L92.8,49.6Z" fill="#108b49"/>
            <path id="Path_50" data-name="Path 50" d="M81.2,55.3,90,84.4l-5,2.8L71.1,59.1a4.221,4.221,0,0,1,3.3-6.2h0C76.1,52.7,80.4,53.7,81.2,55.3Z" fill="#108b49"/>
            <path id="Path_51" data-name="Path 51" d="M82.7,93.9,91.9,89l-2-4.6-5.1,2.7a5.1,5.1,0,0,0-2.1,6.8Z" fill="#96422e"/>
          </g>
        </g>
        <g id="Group_50" data-name="Group 50">
          <path id="Path_52" data-name="Path 52" d="M91.8,27.7s.8-3.3,1.7-4.3c.7-.7,3.1-3,4.4-3.5a1.672,1.672,0,0,1,1.2.1,19.4,19.4,0,0,1,8.1,10.6c2.1,6.2,2.5,24,2.5,24-5.9,3.8-16.9-5-16.9-5,.3-11-2.4-11.6-1-21.9Z" fill="#f04365"/>
          <g id="Group_49" data-name="Group 49">
            <path id="Path_53" data-name="Path 53" d="M90.6,50l8.7.4a3.985,3.985,0,0,0,4.4-3.9l.4-15Z" fill="#d72e57"/>
            <g id="Group_47" data-name="Group 47">
              <path id="Path_54" data-name="Path 54" d="M82.8,47.9,77.6,46a1.063,1.063,0,0,0-1.2.2l-2.3,1.9a1.19,1.19,0,0,0,.3,2h0a1.063,1.063,0,0,0,1.2-.2l1.1-1s3.8,2.2,5.6,1.6l.5-2.6Z" fill="#f97d7d"/>
              <path id="Path_55" data-name="Path 55" d="M95.9,25.1,95,41.9,81.3,45.4l.6,5.1,16.7-1.8a4.588,4.588,0,0,0,3.1-1.5,2.875,2.875,0,0,0,.7-1.8l2.1-17.5-8.6-2.8Z" fill="#f04365"/>
            </g>
            <g id="Group_48" data-name="Group 48">
              <path id="Path_56" data-name="Path 56" d="M72.8,54.6l19.4-3.4a1.13,1.13,0,0,0,.9-1.3h0a1.13,1.13,0,0,0-1.3-.9L72.4,52.4a1.13,1.13,0,0,0-.9,1.3h0A1.187,1.187,0,0,0,72.8,54.6Z" fill="#a7aab2"/>
              <path id="Path_57" data-name="Path 57" d="M73,53.6a.367.367,0,0,1-.3-.1L61,40.2c-.2-.2-.1-.4,0-.6.2-.2.4-.1.6,0L73.3,52.8c.2.2.1.4,0,.6C73.2,53.5,73.1,53.6,73,53.6Z" fill="#b2b7c7"/>
            </g>
          </g>
        </g>
        <path id="Path_58" data-name="Path 58" d="M95.7,19.7s5.5,13.3,13.1,6.7-8.3-10.5-8.3-10.5l-4.8,3.8Z" fill="#243051"/>
      </g>
      <g id="Group_63" data-name="Group 63">
        <g id="Group_62" data-name="Group 62">
          <g id="Group_56" data-name="Group 56">
            <g id="Group_55" data-name="Group 55">
              <path id="Path_59" data-name="Path 59" d="M246.6,207.9l9.9-25.5a1.463,1.463,0,0,1,2.7,0l9.9,25.5Z" fill="#f2a62f"/>
              <g id="Group_54" data-name="Group 54">
                <g id="Group_53" data-name="Group 53" clip-path="url(#clip-path-3)">
                  <g id="Group_52" data-name="Group 52">
                    <rect id="Rectangle_33" data-name="Rectangle 33" width="17.5" height="4.9" transform="translate(248.9 187.8)" fill="#fafafa"/>
                    <rect id="Rectangle_34" data-name="Rectangle 34" width="19.8" height="4.9" transform="translate(247.9 197.1)" fill="#fafafa"/>
                  </g>
                </g>
              </g>
            </g>
            <path id="Path_61" data-name="Path 61" d="M270.6,210H245.2a1.793,1.793,0,0,1-1.8-1.8h0a1.793,1.793,0,0,1,1.8-1.8h25.4a1.793,1.793,0,0,1,1.8,1.8h0A1.793,1.793,0,0,1,270.6,210Z" fill="#eb9924"/>
          </g>
          <g id="Group_61" data-name="Group 61">
            <rect id="Rectangle_35" data-name="Rectangle 35" width="7.7" height="21.8" transform="translate(52.2 178.4)" fill="#72a1fd"/>
            <path id="Path_70" data-name="Path 70" d="M0,0H7.7V21.8H0Z" transform="translate(93 178.4)" fill="#72a1fd"/>
            <path id="Path_62" data-name="Path 62" d="M47.5,199.1H105a3.372,3.372,0,0,1,3.4,3.4v4.3a3.372,3.372,0,0,1-3.4,3.4H47.5a3.372,3.372,0,0,1-3.4-3.4v-4.3A3.5,3.5,0,0,1,47.5,199.1Z" fill="#0a50d8"/>
            <g id="Group_60" data-name="Group 60">
              <path id="Path_63" data-name="Path 63" d="M49.3,160.5h54.6a5.121,5.121,0,0,1,5.1,5.1V175a5.121,5.121,0,0,1-5.1,5.1H49.3a5.121,5.121,0,0,1-5.1-5.1v-9.4A5.121,5.121,0,0,1,49.3,160.5Z" fill="#f2a62f"/>
              <g id="Group_59" data-name="Group 59">
                <g id="Group_58" data-name="Group 58" clip-path="url(#clip-path-4)">
                  <g id="Group_57" data-name="Group 57">
                    <path id="Path_64" data-name="Path 64" d="M43.3,187.1H31.6l27.3-30.2H70.6Z" fill="#fff"/>
                    <path id="Path_65" data-name="Path 65" d="M90.8,187.1H79.1l27.3-30.2h11.7Z" fill="#fff"/>
                    <path id="Path_66" data-name="Path 66" d="M66.6,187.1H54.9l27.3-30.2H93.8Z" fill="#fff"/>
                  </g>
                </g>
              </g>
            </g>
          </g>
        </g>
        <path id="Path_71" data-name="Path 71" d="M0,0H360.3" transform="translate(0.3 210.2)" fill="none" stroke="#102236" stroke-linecap="round" stroke-width="0.65"/>
      </g>
    </g>
  </g>
</svg>
